<svg width="64" height="64" viewBox="0 0 64 64" fill="none" xmlns="http://www.w3.org/2000/svg">
<g clip-path="url(#clip0_132_19)">
<path d="M64 0H0V64H64V0Z" fill="#2C68FF"/>
<path d="M64 0H0V64H64V0Z" fill="#2C68FF"/>
<path d="M23.3609 18.5601C25.7715 18.5601 27.5955 19.1894 28.8329 20.4481C30.0915 21.6854 30.7209 23.5094 30.7209 25.9201V33.6001C30.7209 36.0107 30.0915 37.8454 28.8329 39.1041C27.5955 40.3414 25.7715 40.9601 23.3609 40.9601H10.8809V18.5601H23.3609ZM24.9609 25.9201C24.9609 24.0001 24.0009 23.0401 22.0809 23.0401H16.6409V36.4801H22.0809C24.0009 36.4801 24.9609 35.5201 24.9609 33.6001V25.9201ZM42.7271 34.2401L48.1671 18.5601H54.4071L45.9271 40.9601H39.5271L31.0471 18.5601H37.2871L42.7271 34.2401Z" fill="white"/>
<path d="M84.4644 39.6802C98.6174 39.6802 111.636 48.1177 118.4 52.2921V71.6802H-9.59961C-9.59961 71.6802 0.793509 60.6649 11.6692 55.2697C22.5449 49.8761 34.9346 58.2921 48.5388 58.2921C62.15 58.2921 70.3191 39.6802 84.4644 39.6802Z" fill="white" stroke="white" stroke-width="8" stroke-linecap="round" stroke-linejoin="round"/>
</g>
<rect x="1" y="1" width="62" height="62" stroke="#2C68FF" stroke-width="2"/>
<defs>
<clipPath id="clip0_132_19">
<rect width="64" height="64" fill="white"/>
</clipPath>
</defs>
</svg>
